<svg xmlns="http://www.w3.org/2000/svg" viewBox="0 0 800 450" role="img" aria-hidden="true">
<defs>
<linearGradient id="bg" x1="0" y1="0" x2="0" y2="1">
<stop offset="0" stop-color="#0d1c2f"/><stop offset="1" stop-color="#050c16"/>
</linearGradient>
<linearGradient id="body" gradientUnits="userSpaceOnUse" x1="0" y1="60" x2="0" y2="410">
<stop offset="0" stop-color="#ecf6fd"/><stop offset="1" stop-color="#8cadc6"/>
</linearGradient>
<linearGradient id="steel" gradientUnits="userSpaceOnUse" x1="0" y1="60" x2="0" y2="400">
<stop offset="0" stop-color="#42597b"/><stop offset="1" stop-color="#24364e"/>
</linearGradient>
<radialGradient id="glow" cx="0.5" cy="0.5" r="0.5">
<stop offset="0" stop-color="#3ccfff" stop-opacity="0.14"/><stop offset="1" stop-color="#3ccfff" stop-opacity="0"/>
</radialGradient>
<radialGradient id="glowGreen" cx="0.5" cy="0.5" r="0.5">
<stop offset="0" stop-color="#35d9a4" stop-opacity="0.1"/><stop offset="1" stop-color="#35d9a4" stop-opacity="0"/>
</radialGradient>
</defs>
<rect width="800" height="450" fill="url(#bg)"/>
<ellipse cx="660" cy="60" rx="260" ry="150" fill="url(#glowGreen)"/>
<ellipse cx="400" cy="235" rx="360" ry="245" fill="url(#glow)"/>
<line x1="56" y1="402" x2="744" y2="402" stroke="#1b2e46" stroke-width="3" stroke-linecap="round"/>
<ellipse cx="404" cy="406" rx="120" ry="12" fill="#01060d" opacity="0.6"/>
<path d="M389 174 L400 224" fill="none" stroke="#54718c" stroke-width="22" stroke-linecap="round" stroke-linejoin="round"/><path d="M400 224 L428 198" fill="none" stroke="#54718c" stroke-width="18" stroke-linecap="round" stroke-linejoin="round"/>
<circle cx="428" cy="198" r="8" fill="#54718c"/>
<path d="M387 250 L391 322" fill="none" stroke="#54718c" stroke-width="27" stroke-linecap="round" stroke-linejoin="round"/><path d="M391 322 L387 390" fill="none" stroke="#54718c" stroke-width="21" stroke-linecap="round" stroke-linejoin="round"/>
<path d="M387 390 L411 394" fill="none" stroke="#54718c" stroke-width="12" stroke-linecap="round" stroke-linejoin="round"/>
<path d="M400 250 L406 322" fill="none" stroke="url(#body)" stroke-width="30" stroke-linecap="round" stroke-linejoin="round"/><path d="M406 322 L402 392" fill="none" stroke="url(#body)" stroke-width="24" stroke-linecap="round" stroke-linejoin="round"/>
<path d="M402 392 L428 396" fill="none" stroke="url(#body)" stroke-width="13" stroke-linecap="round" stroke-linejoin="round"/>
<path d="M400 170 L400 248" fill="none" stroke="url(#body)" stroke-width="56" stroke-linecap="round" stroke-linejoin="round"/>
<path d="M400 170 L403 120" fill="none" stroke="url(#body)" stroke-width="15" stroke-linecap="round" stroke-linejoin="round"/>
<circle cx="403" cy="120" r="21" fill="url(#body)"/>
<path d="M402 174 L414 224" fill="none" stroke="url(#body)" stroke-width="24" stroke-linecap="round" stroke-linejoin="round"/><path d="M414 224 L442 196" fill="none" stroke="url(#body)" stroke-width="20" stroke-linecap="round" stroke-linejoin="round"/>
<circle cx="442" cy="196" r="9" fill="url(#body)"/><path d="M429 206 Q444 188 459 206" fill="none" stroke="url(#steel)" stroke-width="7" stroke-linecap="round"/>
<circle cx="444" cy="222" r="21" fill="url(#steel)"/>
<path d="M432 214 Q444 206 456 214" fill="none" stroke="#3ccfff" stroke-width="3" stroke-linecap="round" opacity="0.75"/>
</svg>